<svg width="82" height="89" fill="none" xmlns="http://www.w3.org/2000/svg"><g filter="url(#a)"><path fill-rule="evenodd" clip-rule="evenodd" d="M41 70c12.15 0 22-9.85 22-22s-9.85-22-22-22-22 9.85-22 22 9.85 22 22 22Z" fill="#000" fill-opacity=".01"/></g><g filter="url(#b)"><path fill-rule="evenodd" clip-rule="evenodd" d="M41 70c16.569 0 30-13.431 30-30 0-16.569-13.431-30-30-30-16.569 0-30 13.431-30 30 0 16.569 13.431 30 30 30Z" fill="#2196F3"/><path d="M69 40c0 15.464-12.536 28-28 28S13 55.464 13 40s12.536-28 28-28 28 12.536 28 28Z" stroke="#42A5F5" stroke-width="4"/></g><mask id="c" style="mask-type:luminance" maskUnits="userSpaceOnUse" x="11" y="10" width="60" height="60"><path fill-rule="evenodd" clip-rule="evenodd" d="M41 70c16.569 0 30-13.431 30-30 0-16.569-13.431-30-30-30-16.569 0-30 13.431-30 30 0 16.569 13.431 30 30 30Z" fill="#fff"/></mask><g mask="url(#c)" stroke="#42A5F5" stroke-width="4"><path d="M13.714 32.875h53.822M13.714 48.625h53.822" stroke-linecap="square"/><path d="M40.25 14.5s-9.962 11.578-9.747 26.25C30.72 55.422 40.25 65.5 40.25 65.5M41 14.5s9.962 11.578 9.746 26.25C50.531 55.422 41 65.5 41 65.5" stroke-linecap="round" stroke-linejoin="round"/></g><defs><filter id="a" x="8" y="23" width="66" height="66" filterUnits="userSpaceOnUse" color-interpolation-filters="sRGB"><feFlood flood-opacity="0" result="BackgroundImageFix"/><feColorMatrix in="SourceAlpha" values="0 0 0 0 0 0 0 0 0 0 0 0 0 0 0 0 0 0 127 0" result="hardAlpha"/><feOffset dy="8"/><feGaussianBlur stdDeviation="5.5"/><feColorMatrix values="0 0 0 0 0.215686 0 0 0 0 0.407843 0 0 0 0 0.556863 0 0 0 0.25 0"/><feBlend in2="BackgroundImageFix" result="effect1_dropShadow_1_706"/><feBlend in="SourceGraphic" in2="effect1_dropShadow_1_706" result="shape"/></filter><filter id="b" x="0" y="0" width="82" height="82" filterUnits="userSpaceOnUse" color-interpolation-filters="sRGB"><feFlood flood-opacity="0" result="BackgroundImageFix"/><feColorMatrix in="SourceAlpha" values="0 0 0 0 0 0 0 0 0 0 0 0 0 0 0 0 0 0 127 0" result="hardAlpha"/><feOffset dy="1"/><feGaussianBlur stdDeviation="5.5"/><feColorMatrix values="0 0 0 0 0.215686 0 0 0 0 0.407843 0 0 0 0 0.556863 0 0 0 0.3 0"/><feBlend in2="BackgroundImageFix" result="effect1_dropShadow_1_706"/><feBlend in="SourceGraphic" in2="effect1_dropShadow_1_706" result="shape"/></filter></defs></svg>